<svg width="515" height="128" viewBox="0 0 515 128" fill="none" xmlns="http://www.w3.org/2000/svg">
<path d="M63.2564 127.182H63.5734C73.6044 127.181 83.4919 124.799 92.4235 120.234C101.355 115.668 109.076 109.048 114.952 100.918C120.828 92.7883 124.691 83.3803 126.224 73.4672C127.757 63.554 126.916 53.4186 123.77 43.8937C95.9734 64.7032 71.182 108.338 63.2564 127.182ZM96.9498 24.0986C97.9389 23.9591 40.2277 36.0568 0.168457 62.9659V63.7775C0.320536 73.0613 2.37491 82.2153 6.20461 90.6739C42.3074 57.7033 70.3578 43.8937 116.301 28.537C109.83 18.8475 100.814 11.1286 90.2432 6.22764C79.6725 1.3267 67.9557 -0.566674 56.3793 0.755404C44.8029 2.07748 33.8147 6.56388 24.6211 13.722C15.4276 20.8801 8.38421 30.4331 4.26442 41.3321C40.2024 26.0261 81.3268 25.2653 96.9498 24.0986Z" fill="#F15A24"/>
<path d="M122.172 39.5312C121.077 36.9123 119.806 34.3703 118.368 31.9226C63.7129 48.5601 27.5467 82.5705 12.1266 100.818C19.6002 111.167 30.0147 119.028 42.0157 123.378C52.7438 104.737 79.7163 68.203 122.172 39.5312Z" fill="#619A3F"/>
<path d="M174.957 83.9525V48.2073H185.84V39.4682H153.453V48.2073H164.357V83.9525H174.957ZM210.844 57.6139L210.055 47.2969C206.636 48.2477 203.258 50.3313 199.94 53.5478L196.744 48.3489H191.545V83.9525H202.145V61.3159C203.905 60.001 208.295 58.1601 210.844 57.6139ZM231.761 47.4992C226.076 47.4992 220.331 48.3286 216.022 49.7852L217.378 57.1891C221.99 55.9956 226.339 55.4089 230.405 55.4089C232.833 55.4089 234.633 55.591 235.827 55.9753V61.9632H234.249C228.747 61.9632 224.62 62.2667 221.869 62.914C216.467 64.1682 214.465 66.9396 214.465 73.494C214.465 81.5857 217.964 84.8022 226.137 84.8022C230.891 84.8022 235.018 83.3457 238.517 80.3922L241.309 83.9525H246.427V58.6861C246.427 49.8661 241.188 47.4992 231.761 47.4992ZM230.486 77.3375H224.215V71.3496C224.215 68.1534 225.975 67.7893 229.556 67.7893H235.827V73.9188C235.827 76.9936 233.966 77.3375 230.486 77.3375ZM271.127 56.1979H277.54V83.9525H288.14V54.5593C288.14 49.3401 283.447 47.4992 277.742 47.4992C272.381 47.4992 267.81 48.976 264.006 51.9092L261.235 48.3489H256.117V83.9525H266.717V59.3132C266.717 56.6429 268.194 56.1979 271.127 56.1979ZM295.908 58.6052C295.908 64.6537 297.769 66.8385 302.604 68.3557C305.153 69.1649 309.138 69.9134 314.56 70.5607V76.2654C312.274 76.7913 310.17 77.0543 308.228 77.0543C304.04 77.0543 300.197 76.3058 296.697 74.8493L295.261 82.8197C299.772 84.2762 304.526 85.0247 309.502 85.0247C319.657 85.0247 325.868 82.7388 325.868 73.413C325.868 67.6274 323.44 65.3415 318.727 63.7636C316.077 62.8938 312.253 62.1453 307.216 61.5182V55.9753C309.219 55.5101 311.566 55.2673 314.276 55.2673C317.351 55.2673 320.204 55.6112 322.813 56.3395L324.088 48.8546C319.961 47.8027 315.45 47.2969 310.574 47.2969C301.41 47.2969 295.908 50.0279 295.908 58.6052ZM344.034 83.9525V48.0657L333.413 49.5019V83.9525H344.034ZM338.835 43.7366C343.407 43.7366 344.661 42.4824 344.661 37.8903C344.661 33.278 343.386 31.9226 338.835 31.9226C334.162 31.9226 332.847 33.2173 332.847 37.8903C332.847 42.5026 334.182 43.7366 338.835 43.7366ZM363.029 84.8022C365.032 84.8022 367.54 84.4987 370.575 83.8716L371.08 76.6902C369.462 76.6497 367.925 76.5081 366.448 76.2654V55.328H372.072V48.3489H366.448V39.0231L355.848 41.6732V48.3489H351.579V55.328H355.848V78.3288C355.848 82.9613 358.275 84.8022 363.029 84.8022ZM408.606 83.1636L407.675 74.3436C404.257 75.4764 400.534 76.0429 396.488 76.0429C394.122 76.0429 391.775 75.7799 389.449 75.2741V52.415C389.449 47.9038 391.836 47.216 396.711 47.216C399.584 47.216 404.337 47.9443 406.745 48.5714L408.1 40.0346C405.875 39.1041 400.251 38.396 396.994 38.396C391.957 38.396 388.114 39.0838 385.423 40.4594C379.091 43.6961 378.06 51.1608 378.06 61.7407C378.06 67.9107 378.585 72.6443 379.617 75.9417C381.782 82.7995 386.718 85.0247 395.922 85.0247C401.182 85.0247 404.863 84.5796 408.606 83.1636ZM431.242 56.1979H436.563V83.9525H447.183V54.5593C447.183 49.3401 442.47 47.4992 436.785 47.4992C432.274 47.4992 428.532 48.4096 425.538 50.21V36.6158L415.14 37.4048V83.9525H425.76V59.7582C425.76 56.562 427.662 56.1979 431.242 56.1979ZM471.944 47.4992C466.259 47.4992 460.514 48.3286 456.226 49.7852L457.581 57.1891C462.173 55.9956 466.522 55.4089 470.609 55.4089C473.016 55.4089 474.816 55.591 476.01 55.9753V61.9632H474.452C468.93 61.9632 464.803 62.2667 462.052 62.914C456.651 64.1682 454.648 66.9396 454.648 73.494C454.648 81.5857 458.168 84.8022 466.32 84.8022C471.074 84.8022 475.201 83.3457 478.721 80.3922L481.492 83.9525H486.61V58.6861C486.61 49.8661 481.391 47.4992 471.944 47.4992ZM470.669 77.3375H464.398V71.3496C464.398 68.1534 466.158 67.7893 469.739 67.7893H476.01V73.9188C476.01 76.9936 474.149 77.3375 470.669 77.3375ZM505.262 84.8022C507.264 84.8022 509.773 84.4987 512.807 83.8716L513.313 76.6902C511.695 76.6497 510.157 76.5081 508.68 76.2654V55.328H514.304V48.3489H508.68V39.0231L498.08 41.6732V48.3489H493.812V55.328H498.08V78.3288C498.08 82.9613 500.508 84.8022 505.262 84.8022Z" fill="#333333"/>
</svg>
